# xmcd
#
# Track frame offsets:
#	150
#	12139
#	22905
#	33874
#	43290
#	55097
#	64892
#	79487
#	87384
#	96911
#	108415
#	117825
#	129984
#	144489
#	155735
#	168042
#	182423
#	194340
#	206236
#	218877
#	230328
#	239894
#	253615
#
# Disc length: 3592 seconds
#
# Revision: 1
# Processed by: cddbd v1.5.2PL0 Copyright (c) Steve Scherf et al.
# Submitted via: audiograbber 1.83.01
#
DISCID=430e0617
DTITLE=mac wiseman - mac wisekeep on the sunny side (1960) man sings best loved
DTITLE=gospel hymns (1961)
DYEAR=2016
DGENRE=country
TTITLE0=One mint julep 
TTITLE1=I'd rather die young 
TTITLE2=I hear you knocking 
TTITLE3=I'm waiting for ships that never come in 
TTITLE4=Little white church 
TTITLE5=Keep on the sunny side 
TTITLE6=The fire in my heart 
TTITLE7=Step it up and go 
TTITLE8=The Kentuckian song 
TTITLE9=The waltz you saved for me 
TTITLE10=When the works all done this fall 
TTITLE11=Peace in the valley 
TTITLE12=Let the lower lights be burning 
TTITLE13=I heard my mother call my name in prayer 
TTITLE14=Bringing in the sheaves 
TTITLE15=Where is my boy tonight 
TTITLE16=The beautiful garden of prayer 
TTITLE17=Beautiful isle of somewhere 
TTITLE18=In the sweet bye and bye 
TTITLE19=If I could hear my mother pray again 
TTITLE20=Shall we gather at the river 
TTITLE21=Lord I'm coming home 
TTITLE22=Tell my mother I'll be there 
EXTD=
EXTT0=
EXTT1=
EXTT2=
EXTT3=
EXTT4=
EXTT5=
EXTT6=
EXTT7=
EXTT8=
EXTT9=
EXTT10=
EXTT11=
EXTT12=
EXTT13=
EXTT14=
EXTT15=
EXTT16=
EXTT17=
EXTT18=
EXTT19=
EXTT20=
EXTT21=
EXTT22=
PLAYORDER=
